grf.mot
version=1
nRows=34
nColumns=19
inDegrees=yes
endheader
time	ground_force_vx	ground_force_vy	ground_force_vz	ground_force_px	ground_force_py	ground_force_pz	1_ground_force_vx	1_ground_force_vy	1_ground_force_vz	1_ground_force_px	1_ground_force_py	1_ground_force_pz	ground_torque_x	ground_torque_y	ground_torque_z	1_ground_torque_x	1_ground_torque_y	1_ground_torque_z	
3.7182	174.39	1064.89	-52.8094	-0.419135	-0.0366697	0.0860624	4.9308	175.775	-18.7184	0.190971	0.0167078	-0.0889743	0	-6.17345	0	0	-2.09834	0
3.71987	175.763	1059.96	-51.6937	-0.423875	-0.0370844	0.0861291	3.95353	185.385	-18.878	0.193329	0.0169141	-0.0907139	0	-6.23106	0	0	-2.09049	0
3.72154	177.05	1054.56	-50.5513	-0.428485	-0.0374877	0.086188	2.89835	195.208	-19.0063	0.195534	0.017107	-0.0924094	0	-6.28372	0	0	-2.07706	0
3.7232	178.247	1048.7	-49.3836	-0.432949	-0.0378783	0.0862377	1.76461	205.237	-19.1023	0.197584	0.0172863	-0.094059	0	-6.33123	0	0	-2.05788	0
3.72487	179.351	1042.37	-48.1918	-0.437251	-0.0382547	0.086277	0.551838	215.469	-19.1653	0.199477	0.0174519	-0.0956611	0	-6.37342	0	0	-2.03285	0
3.72653	180.359	1035.57	-46.9774	-0.441375	-0.0386154	0.0863045	-0.740255	225.895	-19.1944	0.201211	0.0176037	-0.0972141	0	-6.41011	0	0	-2.00183	0
3.7282	181.266	1028.32	-45.7419	-0.445303	-0.0389591	0.086319	-2.11179	236.511	-19.1889	0.202786	0.0177415	-0.0987165	0	-6.44112	0	0	-1.96473	0
3.72987	182.07	1020.6	-44.4867	-0.449019	-0.0392843	0.0863192	-3.56271	247.31	-19.1481	0.2042	0.0178652	-0.100167	0	-6.4663	0	0	-1.92144	0
3.73154	182.767	1012.43	-43.2135	-0.452508	-0.0395895	0.0863036	-5.09276	258.284	-19.0715	0.205454	0.0179749	-0.101565	0	-6.4855	0	0	-1.87187	0
3.7332	183.355	1003.8	-41.9238	-0.455754	-0.0398735	0.086271	-6.70152	269.427	-18.9586	0.206548	0.0180706	-0.102908	0	-6.49856	0	0	-1.81597	0
3.73487	183.83	994.732	-40.6191	-0.45874	-0.0401348	0.0862199	-8.38837	280.73	-18.8089	0.207481	0.0181523	-0.104196	0	-6.50537	0	0	-1.75366	0
3.73654	184.191	985.22	-39.3013	-0.461452	-0.040372	0.0861491	-10.1525	292.186	-18.622	0.208255	0.01822	-0.105429	0	-6.5058	0	0	-1.68491	0
3.7382	184.433	975.274	-37.9718	-0.463875	-0.040584	0.0860572	-11.9929	303.787	-18.3976	0.20887	0.0182738	-0.106605	0	-6.49973	0	0	-1.60968	0
3.73987	184.556	964.9	-36.6324	-0.465993	-0.0407693	0.0859428	-13.9084	315.524	-18.1356	0.209329	0.0183139	-0.107724	0	-6.48708	0	0	-1.52795	0
3.74154	184.558	954.107	-35.2848	-0.467794	-0.0409269	0.0858048	-15.8977	327.389	-17.8358	0.209632	0.0183404	-0.108786	0	-6.46776	0	0	-1.43971	0
3.7432	184.436	942.904	-33.9307	-0.469263	-0.0410554	0.0856417	-17.9591	339.372	-17.498	0.209782	0.0183536	-0.10979	0	-6.44168	0	0	-1.34498	0
3.74487	184.188	931.3	-32.5718	-0.470388	-0.0411538	0.0854524	-20.091	351.465	-17.1224	0.209782	0.0183535	-0.110736	0	-6.40881	0	0	-1.24376	0
3.74654	183.814	919.305	-31.2099	-0.471157	-0.0412211	0.0852356	-22.2913	363.658	-16.7089	0.209633	0.0183405	-0.111625	0	-6.36908	0	0	-1.13611	0
3.7482	183.312	906.93	-29.8466	-0.471557	-0.0412561	0.08499	-24.5581	375.942	-16.2577	0.20934	0.0183148	-0.112456	0	-6.32247	0	0	-1.02206	0
3.74987	182.682	894.186	-28.4838	-0.471578	-0.041258	0.0847146	-26.8889	388.306	-15.7691	0.208904	0.0182767	-0.11323	0	-6.26896	0	0	-0.901676	0
3.75154	181.922	881.086	-27.1232	-0.471211	-0.0412258	0.0844083	-29.2814	400.742	-15.2433	0.208331	0.0182266	-0.113947	0	-6.20855	0	0	-0.775035	0
3.7532	181.032	867.641	-25.7664	-0.470444	-0.0411588	0.0840699	-31.7328	413.238	-14.6807	0.207623	0.0181646	-0.114608	0	-6.14125	0	0	-0.642225	0
3.75487	180.013	853.866	-24.4153	-0.469272	-0.0410562	0.0836984	-34.2405	425.784	-14.0818	0.206784	0.0180913	-0.115213	0	-6.06709	0	0	-0.503347	0
3.75654	178.864	839.774	-23.0715	-0.467685	-0.0409173	0.083293	-36.8013	438.371	-13.4469	0.20582	0.0180069	-0.115764	0	-5.98612	0	0	-0.358517	0
3.7582	177.585	825.379	-21.7366	-0.465677	-0.0407417	0.0828526	-39.4123	450.987	-12.7768	0.204734	0.0179119	-0.11626	0	-5.8984	0	0	-0.207861	0
3.75987	176.177	810.696	-20.4124	-0.463244	-0.0405288	0.0823765	-42.0701	463.622	-12.0719	0.203531	0.0178067	-0.116703	0	-5.804	0	0	-0.0515198	0
3.76154	174.642	795.74	-19.1005	-0.460379	-0.0402782	0.0818638	-44.7714	476.264	-11.3331	0.202216	0.0176916	-0.117095	0	-5.70301	0	0	0.110355	0
3.7632	172.98	780.528	-17.8025	-0.45708	-0.0399895	0.0813139	-47.5125	488.905	-10.5609	0.200795	0.0175672	-0.117436	0	-5.59555	0	0	0.2776	0
3.76487	171.193	765.076	-16.52	-0.453345	-0.0396627	0.0807262	-50.2898	501.532	-9.75636	0.199271	0.0174339	-0.117728	0	-5.48173	0	0	0.450041	0
3.76654	169.282	749.399	-15.2546	-0.449171	-0.0392976	0.0801001	-53.0994	514.134	-8.92016	0.197651	0.0172922	-0.117971	0	-5.36169	0	0	0.62749	0
3.7682	167.249	733.515	-14.0076	-0.444559	-0.038894	0.0794351	-55.9375	526.701	-8.05326	0.19594	0.0171425	-0.118169	0	-5.2356	0	0	0.809752	0
3.76987	165.097	717.442	-12.7807	-0.439509	-0.0384522	0.0787308	-58.8001	539.222	-7.15659	0.194143	0.0169853	-0.118321	0	-5.10361	0	0	0.99662	0
3.77153	162.828	701.196	-11.5752	-0.434023	-0.0379723	0.077987	-61.6829	551.686	-6.23115	0.192266	0.0168211	-0.11843	0	-4.96592	0	0	1.18788	0
3.7732	160.445	684.795	-10.3925	-0.428105	-0.0374545	0.0772034	-64.5819	564.083	-5.27797	0.190315	0.0166504	-0.118498	0	-4.82272	0	0	1.3833	0
